<svg xmlns="http://www.w3.org/2000/svg" viewBox="0 0 46 46" width="46" height="46">
	<style>
		tspan { white-space:pre }
		.shp0 { fill: #00bbd3 } 
	</style>
	<g id="Layer">
		<path id="Layer" class="shp0" d="M10.42,4.28c-0.64,-0.54 -0.93,-1.37 -0.78,-2.18c0.15,-0.79 0.71,-1.42 1.48,-1.67c2.3,-0.76 4.34,-0.51 5.9,0.74c0.28,0.22 0.66,0.22 0.94,0c1.56,-1.25 3.6,-1.5 5.9,-0.74c0.77,0.26 1.32,0.88 1.48,1.67c0.16,0.81 -0.14,1.64 -0.78,2.18c-0.73,0.61 -1.66,2.54 -1.96,3.41c-0.31,0.9 -1.15,1.51 -2.09,1.51h-5.7c-0.94,0 -1.78,-0.61 -2.09,-1.51c-0.22,-0.64 -1.48,-2.71 -2.3,-3.41zM11.41,3.11c1.02,0.86 2.44,3.15 2.76,4.08c0.1,0.29 0.36,0.48 0.64,0.48h5.7c0.29,0 0.55,-0.19 0.64,-0.48c0.2,-0.57 1.24,-3.09 2.41,-4.08c0.22,-0.18 0.31,-0.45 0.26,-0.72c-0.03,-0.14 -0.12,-0.4 -0.45,-0.51c-1.81,-0.6 -3.31,-0.44 -4.46,0.48c-0.84,0.67 -2.01,0.67 -2.85,0c-0.7,-0.56 -1.52,-0.84 -2.47,-0.84c-0.61,0 -1.28,0.12 -1.99,0.35c-0.33,0.11 -0.43,0.37 -0.46,0.51c-0.05,0.27 0.05,0.53 0.26,0.72z" />
		<path id="Layer" class="shp0" d="M24.17,10.73c0,-0.42 -0.34,-0.77 -0.77,-0.77c-0.14,0 -0.27,0.05 -0.38,0.12c-0.11,-0.07 -0.24,-0.12 -0.38,-0.12h-9.2c-0.42,0 -0.77,0.34 -0.77,0.77c0,0.42 0.34,0.77 0.77,0.77h9.2v0.77h-8.43c-0.42,0 -0.77,0.34 -0.77,0.77c0,0.42 0.34,0.77 0.77,0.77h9.14c0.69,0.57 1.53,0.9 2.44,0.9c1.02,0 1.99,-0.4 2.71,-1.12c0.3,-0.3 0.3,-0.78 0,-1.08c-0.3,-0.3 -0.78,-0.3 -1.08,0c-0.87,0.87 -2.37,0.87 -3.24,0.01z" />
		<path id="Layer" class="shp0" d="M16.51,19.93c-4.92,0 -10.73,6.23 -10.73,11.5c0,0.42 0.34,0.77 0.77,0.77c0.42,0 0.77,-0.34 0.77,-0.77c0,-4.38 5.16,-9.97 9.2,-9.97c0.42,0 0.77,-0.34 0.77,-0.77c0,-0.42 -0.34,-0.77 -0.77,-0.77z" />
		<path id="Layer" class="shp0" d="M45.64,27.22v8.82c0,0.13 -0.02,0.26 -0.06,0.38h0.06v4.22c0,1.89 -3.98,3.07 -7.67,3.07c-1.67,0 -3.35,-0.24 -4.72,-0.67c-1.08,1.77 -3.02,2.97 -5.24,2.97c-1.93,0 -3.65,-0.9 -4.78,-2.3h-14.92c-0.21,0 -0.42,-0.01 -0.63,-0.02c-2.65,-0.18 -4.59,-2.94 -5.75,-5.23c-3.19,-6.29 -1.4,-14.08 4.26,-18.53l5.43,-3.95c1.14,-0.89 2.59,-1.4 4.06,-1.4h5.96c1.67,0 3.11,0.83 4.02,1.53l5.52,3.75c1.72,1.32 3.08,2.94 4.11,4.83c0.95,-0.11 1.89,-0.15 2.68,-0.15c2.85,0 7.67,0.57 7.67,2.68zM37.97,26.07c-1.23,0 -2.27,0.09 -3.13,0.22c-0.16,0.02 -0.32,0.05 -0.47,0.08c-0.14,0.02 -0.26,0.05 -0.39,0.08c-0.1,0.02 -0.21,0.04 -0.31,0.07c-0.21,0.05 -0.39,0.1 -0.57,0.15c-0.08,0.02 -0.14,0.05 -0.21,0.07c-0.1,0.03 -0.19,0.06 -0.27,0.1c-0.07,0.03 -0.14,0.05 -0.2,0.08c-0.06,0.03 -0.11,0.05 -0.16,0.08c-0.09,0.05 -0.17,0.09 -0.23,0.13c-0.04,0.03 -0.08,0.05 -0.11,0.08c-0.01,0.01 -0.02,0.02 -0.03,0.02c0.02,0.02 0.03,0.03 0.05,0.05c0.03,0.02 0.07,0.05 0.11,0.08c0.05,0.03 0.11,0.07 0.18,0.1c0.05,0.03 0.11,0.06 0.18,0.08c0.08,0.04 0.18,0.07 0.27,0.11c0.08,0.03 0.16,0.06 0.25,0.09c0.11,0.04 0.24,0.07 0.37,0.11c0.1,0.03 0.2,0.06 0.31,0.09c0.15,0.04 0.31,0.07 0.47,0.1c0.12,0.03 0.24,0.05 0.37,0.08c0.18,0.03 0.39,0.06 0.59,0.09c0.14,0.02 0.27,0.04 0.42,0.06c0.24,0.03 0.51,0.05 0.77,0.07c0.13,0.01 0.26,0.02 0.4,0.03c0.42,0.02 0.86,0.04 1.33,0.04c0.47,0 0.92,-0.01 1.33,-0.04c0.14,-0.01 0.26,-0.02 0.4,-0.03c0.27,-0.02 0.53,-0.04 0.77,-0.07c0.15,-0.02 0.28,-0.04 0.42,-0.06c0.2,-0.03 0.41,-0.06 0.59,-0.09c0.13,-0.02 0.25,-0.05 0.37,-0.08c0.16,-0.03 0.33,-0.07 0.47,-0.1c0.11,-0.03 0.21,-0.06 0.31,-0.09c0.13,-0.04 0.26,-0.07 0.37,-0.11c0.09,-0.03 0.17,-0.06 0.25,-0.09c0.1,-0.04 0.19,-0.07 0.27,-0.11c0.07,-0.03 0.12,-0.06 0.18,-0.08c0.07,-0.03 0.13,-0.07 0.18,-0.1c0.04,-0.03 0.08,-0.05 0.11,-0.08c0.02,-0.02 0.04,-0.03 0.05,-0.05c-0.43,-0.4 -2.46,-1.14 -6.08,-1.14zM31.97,33.34c-0.04,-0.02 -0.09,-0.04 -0.13,-0.06c0,0.84 0,1.5 0,1.8c0.01,0.01 0.02,0.02 0.03,0.02c0.09,0.08 0.18,0.16 0.27,0.24c0.05,0.05 0.11,0.1 0.16,0.15c0.1,0.1 0.2,0.2 0.29,0.31c0.03,0.04 0.07,0.07 0.1,0.11c0.11,0.13 0.21,0.26 0.3,0.39c0.02,0.02 0.03,0.04 0.05,0.07c0.1,0.15 0.2,0.3 0.29,0.46c0,0.01 0.01,0.02 0.01,0.02c1.27,0.46 2.94,0.71 4.63,0.71c0.3,0 0.57,-0.01 0.85,-0.02c3.13,-0.16 5.11,-1.13 5.29,-1.56l0,-2.7c-0.04,0.02 -0.08,0.04 -0.12,0.06c-0.13,0.06 -0.26,0.12 -0.4,0.18c-0.07,0.03 -0.14,0.06 -0.21,0.09c-0.13,0.05 -0.27,0.1 -0.41,0.15c-0.08,0.03 -0.15,0.05 -0.23,0.08c-0.16,0.05 -0.32,0.1 -0.49,0.14c-0.06,0.02 -0.12,0.04 -0.19,0.05c-0.23,0.06 -0.47,0.11 -0.71,0.16c-0.05,0.01 -0.11,0.02 -0.16,0.03c-0.19,0.04 -0.39,0.07 -0.58,0.1c-0.09,0.01 -0.18,0.02 -0.27,0.04c-0.17,0.02 -0.34,0.04 -0.51,0.06c-0.09,0.01 -0.19,0.02 -0.28,0.03c-0.18,0.02 -0.36,0.03 -0.54,0.04c-0.08,0 -0.17,0.01 -0.25,0.01c-0.26,0.01 -0.52,0.02 -0.78,0.02c-0.26,0 -0.52,-0.01 -0.78,-0.02c-0.08,0 -0.16,-0.01 -0.24,-0.01c-0.18,-0.01 -0.36,-0.02 -0.55,-0.04c-0.09,-0.01 -0.18,-0.02 -0.28,-0.03c-0.18,-0.02 -0.35,-0.04 -0.52,-0.06c-0.09,-0.01 -0.17,-0.02 -0.26,-0.04c-0.2,-0.03 -0.4,-0.06 -0.59,-0.1c-0.05,-0.01 -0.1,-0.02 -0.15,-0.03c-0.24,-0.05 -0.48,-0.1 -0.71,-0.16c-0.06,-0.01 -0.12,-0.03 -0.18,-0.05c-0.17,-0.05 -0.34,-0.09 -0.5,-0.14c-0.08,-0.02 -0.15,-0.05 -0.22,-0.07c-0.14,-0.05 -0.28,-0.1 -0.41,-0.15c-0.07,-0.03 -0.14,-0.06 -0.21,-0.09c-0.14,-0.06 -0.26,-0.12 -0.39,-0.18zM21.89,40.23c-0.01,-0.12 -0.02,-0.24 -0.02,-0.36c0,-0.03 0,-0.06 0,-0.08c0,-0.07 0.01,-0.13 0.01,-0.2c0.01,-0.18 0.02,-0.37 0.05,-0.55c0.01,-0.04 0.01,-0.09 0.01,-0.13c0.01,-0.03 0.02,-0.07 0.02,-0.1c0.05,-0.26 0.1,-0.52 0.18,-0.78c0.02,-0.06 0.04,-0.11 0.06,-0.17c0.07,-0.2 0.15,-0.39 0.23,-0.58c0.04,-0.09 0.08,-0.17 0.12,-0.25c0.11,-0.21 0.23,-0.42 0.37,-0.62c0.05,-0.08 0.11,-0.15 0.17,-0.22c0.1,-0.14 0.21,-0.27 0.33,-0.4c0.07,-0.08 0.13,-0.15 0.2,-0.22c0.16,-0.17 0.33,-0.32 0.51,-0.47c0.08,-0.06 0.16,-0.12 0.25,-0.18c0.14,-0.1 0.29,-0.2 0.44,-0.29c0.08,-0.05 0.15,-0.1 0.23,-0.14c0.21,-0.12 0.44,-0.22 0.66,-0.31c0.08,-0.03 0.16,-0.06 0.25,-0.09c0.23,-0.08 0.46,-0.15 0.7,-0.2c0.02,0 0.04,-0.01 0.06,-0.02c0.01,0 0.01,0 0.02,0c0.26,-0.05 0.53,-0.09 0.8,-0.11c0.07,0 0.13,-0.01 0.2,-0.01c0.08,0 0.16,-0.01 0.25,-0.01c0.16,0 0.32,0.01 0.48,0.02c0.03,0 0.06,0 0.09,0c0.28,0.03 0.55,0.07 0.82,0.14c0.04,0.01 0.07,0.02 0.11,0.03c0.27,0.07 0.54,0.15 0.8,0.26v-6.97c0,-0.14 0.03,-0.28 0.07,-0.41c0.02,-0.06 0.05,-0.11 0.08,-0.17c0.03,-0.06 0.06,-0.13 0.1,-0.19c0.05,-0.07 0.11,-0.14 0.17,-0.21c0.03,-0.03 0.06,-0.07 0.1,-0.1c0.08,-0.08 0.17,-0.15 0.27,-0.22c0.02,-0.01 0.04,-0.02 0.05,-0.04c0.64,-0.45 1.58,-0.75 2.55,-0.95c-0.89,-1.5 -2.04,-2.78 -3.41,-3.83l-5.52,-3.75c-0.76,-0.58 -1.89,-1.24 -3.12,-1.24h-5.96c-1.13,0 -2.25,0.39 -3.14,1.09l-5.43,3.95c-5.06,3.98 -6.67,10.97 -3.81,16.61c1.39,2.73 2.98,4.29 4.49,4.4c0.17,0.01 0.35,0.02 0.53,0.02h13.92c-0.2,-0.61 -0.31,-1.28 -0.34,-1.94zM32.19,41.77c0.07,-0.14 0.12,-0.29 0.17,-0.44c0,-0.01 0,-0.01 0.01,-0.02c0.05,-0.14 0.09,-0.29 0.12,-0.43c0,-0.02 0.01,-0.03 0.01,-0.05c0.03,-0.14 0.05,-0.27 0.07,-0.41c0,-0.02 0.01,-0.05 0.01,-0.07c0.02,-0.16 0.03,-0.32 0.03,-0.49c0,-0.16 -0.01,-0.32 -0.02,-0.47c0,-0.01 0,-0.02 -0.01,-0.04c-0.02,-0.14 -0.04,-0.29 -0.07,-0.43c0,-0.01 -0.01,-0.02 -0.01,-0.03c-0.03,-0.14 -0.07,-0.28 -0.11,-0.42c0,-0.01 -0.01,-0.02 -0.01,-0.03c-0.05,-0.14 -0.1,-0.27 -0.15,-0.41c-0.03,-0.08 -0.07,-0.16 -0.11,-0.23c-0.17,-0.34 -0.38,-0.65 -0.62,-0.93c-0.01,-0.01 -0.02,-0.02 -0.03,-0.04c-0.11,-0.12 -0.22,-0.23 -0.33,-0.34c-0.03,-0.03 -0.06,-0.05 -0.08,-0.08c-0.12,-0.1 -0.24,-0.2 -0.37,-0.29c-0.03,-0.02 -0.05,-0.04 -0.08,-0.06l-0.03,-0.02c-0.19,-0.13 -0.39,-0.24 -0.6,-0.33c-0.23,-0.11 -0.46,-0.19 -0.69,-0.26c0,0 -0.01,0 -0.01,0c-0.23,-0.07 -0.46,-0.11 -0.7,-0.14c-0.01,0 -0.02,0 -0.04,-0.01c-0.22,-0.03 -0.45,-0.03 -0.67,-0.03c-0.04,0 -0.09,0 -0.13,0.01c-0.22,0.01 -0.44,0.04 -0.67,0.08c-0.02,0 -0.05,0.01 -0.07,0.02c-0.18,0.04 -0.35,0.09 -0.52,0.15c-0.05,0.02 -0.1,0.04 -0.15,0.06c-0.19,0.08 -0.38,0.16 -0.56,0.26c0,0 -0.01,0 -0.01,0.01c-0.79,0.45 -1.44,1.14 -1.86,1.95c-0.01,0.02 -0.02,0.03 -0.03,0.05c-0.09,0.18 -0.17,0.37 -0.23,0.56c-0.01,0.02 -0.02,0.04 -0.02,0.06c-0.06,0.19 -0.11,0.39 -0.14,0.59c-0.01,0.07 -0.02,0.14 -0.03,0.21c-0.01,0.07 -0.02,0.14 -0.02,0.21c-0.01,0.08 -0.01,0.17 -0.01,0.25c0,0.06 0,0.12 0,0.18c0.03,2.51 2.08,4.55 4.6,4.55c1.86,0 3.46,-1.11 4.18,-2.7zM44.12,40.58l0,-2.44c-1.66,0.73 -4.3,0.97 -6.14,0.97c-1.42,0 -2.77,-0.11 -3.93,-0.33c0.02,0.1 0.03,0.2 0.04,0.3c0.01,0.07 0.02,0.14 0.03,0.21c0.02,0.2 0.03,0.39 0.03,0.59c0,0.27 -0.02,0.54 -0.06,0.8c-0.01,0.06 -0.02,0.12 -0.03,0.19c-0.04,0.26 -0.1,0.52 -0.17,0.77c0,0 0,0 0,0c1.19,0.35 2.64,0.54 4.09,0.54c3.62,0 5.94,-1.11 6.14,-1.59zM44.12,31.38l0,-2.44c-0.02,0.01 -0.05,0.02 -0.07,0.03c-0.18,0.08 -0.37,0.15 -0.57,0.22c-0.01,0 -0.02,0.01 -0.03,0.01c-0.21,0.07 -0.44,0.13 -0.67,0.19c-0.07,0.02 -0.15,0.03 -0.22,0.05c-0.16,0.04 -0.33,0.07 -0.5,0.11c-0.08,0.02 -0.16,0.03 -0.25,0.05c-0.19,0.03 -0.37,0.06 -0.56,0.09c-0.06,0.01 -0.12,0.02 -0.18,0.03c-0.25,0.03 -0.5,0.06 -0.74,0.09c-0.06,0.01 -0.12,0.01 -0.18,0.02c-0.19,0.02 -0.38,0.03 -0.56,0.05c-0.08,0.01 -0.16,0.01 -0.24,0.01c-0.17,0.01 -0.34,0.02 -0.5,0.02c-0.07,0 -0.14,0.01 -0.21,0.01c-0.22,0.01 -0.44,0.01 -0.65,0.01c-0.21,0 -0.43,0 -0.65,-0.01c-0.07,0 -0.14,-0.01 -0.21,-0.01c-0.17,-0.01 -0.33,-0.01 -0.5,-0.02c-0.08,0 -0.16,-0.01 -0.24,-0.01c-0.19,-0.01 -0.37,-0.03 -0.56,-0.04c-0.06,-0.01 -0.12,-0.01 -0.18,-0.02c-0.25,-0.02 -0.49,-0.05 -0.74,-0.09c-0.06,-0.01 -0.12,-0.02 -0.18,-0.03c-0.19,-0.03 -0.38,-0.06 -0.56,-0.09c-0.08,-0.01 -0.16,-0.03 -0.25,-0.05c-0.17,-0.03 -0.34,-0.07 -0.5,-0.11c-0.08,-0.02 -0.15,-0.03 -0.22,-0.05c-0.22,-0.06 -0.44,-0.12 -0.65,-0.18c-0.01,0 -0.02,-0.01 -0.03,-0.01c-0.2,-0.07 -0.4,-0.14 -0.58,-0.22c-0.02,-0.01 -0.04,-0.02 -0.06,-0.02c0,0.74 0,1.63 0,2.5c0.2,0.42 2.52,1.53 6.13,1.53c3.62,0 5.94,-1.11 6.14,-1.59z" />
	</g>
	<g id="Layer">
	</g>
	<g id="Layer">
	</g>
	<g id="Layer">
	</g>
	<g id="Layer">
	</g>
	<g id="Layer">
	</g>
	<g id="Layer">
	</g>
	<g id="Layer">
	</g>
	<g id="Layer">
	</g>
	<g id="Layer">
	</g>
	<g id="Layer">
	</g>
	<g id="Layer">
	</g>
	<g id="Layer">
	</g>
	<g id="Layer">
	</g>
	<g id="Layer">
	</g>
	<g id="Layer">
	</g>
</svg>