<svg xmlns="http://www.w3.org/2000/svg" viewBox="0 0 46 46" width="46" height="46">
	<style>
		tspan { white-space:pre }
		.shp0 { fill: #00bbd3 } 
	</style>
	<g id="Layer">
		<g id="Layer">
			<g id="Layer">
				<path id="Layer" class="shp0" d="M23.72,29.47v-6.89c0,-0.46 0.31,-0.77 0.77,-0.77h12.24c0.46,0 0.77,0.31 0.77,0.77v6.89c0,0.46 -0.31,0.77 -0.77,0.77h-12.24c-0.46,0 -0.77,-0.31 -0.77,-0.77zM25.25,28.7h10.71v-5.36h-10.71z" />
				<path id="Layer" class="shp0" d="M3.83,20.28h6.12c0.46,0 0.77,-0.31 0.77,-0.77c0,-0.46 -0.31,-0.77 -0.77,-0.77h-6.12c-0.46,0 -0.77,0.31 -0.77,0.77c0,0.46 0.31,0.77 0.77,0.77z" />
				<path id="Layer" class="shp0" d="M13.01,20.28h6.12c0.46,0 0.77,-0.31 0.77,-0.77c0,-0.46 -0.31,-0.77 -0.77,-0.77h-6.12c-0.46,0 -0.77,0.31 -0.77,0.77c0,0.46 0.31,0.77 0.77,0.77z" />
				<path id="Layer" class="shp0" d="M3.83,23.34h9.95c0.46,0 0.77,-0.31 0.77,-0.77c0,-0.46 -0.31,-0.77 -0.77,-0.77h-9.95c-0.46,0 -0.77,0.31 -0.77,0.77c0,0.46 0.31,0.77 0.77,0.77z" />
				<path id="Layer" class="shp0" d="M19.13,21.81h-2.3c-0.46,0 -0.77,0.31 -0.77,0.77c0,0.46 0.31,0.77 0.77,0.77h2.3c0.46,0 0.77,-0.31 0.77,-0.77c0,-0.46 -0.31,-0.77 -0.77,-0.77z" />
				<path id="Layer" class="shp0" d="M45.91,14.55l-2.3,24.56c-0.15,1.45 -1.53,2.6 -3.06,2.6c-0.08,0 -0.23,0 -0.31,0l-35.35,-3.98c-1.57,-0.14 -2.74,-1.49 -2.7,-3.03c-1.26,-0.38 -2.19,-1.55 -2.19,-2.93v-24.49c0,-1.68 1.38,-3.06 3.06,-3.06h35.2c1.68,0 3.06,1.38 3.06,3.06v3.68l1.84,0.22c0.84,0.08 1.53,0.46 2.07,1.15c0.54,0.61 0.77,1.45 0.69,2.22zM1.53,14.16h38.26v-4.59h-38.26zM1.53,7.28v0.77h38.26v-0.77c0,-0.84 -0.69,-1.53 -1.53,-1.53h-35.2c-0.84,0 -1.53,0.69 -1.53,1.53zM3.06,33.29h35.2c0.84,0 1.53,-0.69 1.53,-1.53v-16.07h-38.26v16.07c0,0.84 0.69,1.53 1.53,1.53zM44.07,13.09c-0.23,-0.31 -0.61,-0.54 -0.99,-0.54l-1.76,-0.15v19.36c0,1.68 -1.38,3.06 -3.06,3.06h-34.51c0.08,0.69 0.61,1.3 1.38,1.38l35.27,3.98c0.84,0.08 1.61,-0.54 1.68,-1.38l2.3,-24.56c0.08,-0.38 -0.08,-0.84 -0.31,-1.15z" />
			</g>
		</g>
	</g>
	<g id="Layer">
	</g>
	<g id="Layer">
	</g>
	<g id="Layer">
	</g>
	<g id="Layer">
	</g>
	<g id="Layer">
	</g>
	<g id="Layer">
	</g>
	<g id="Layer">
	</g>
	<g id="Layer">
	</g>
	<g id="Layer">
	</g>
	<g id="Layer">
	</g>
	<g id="Layer">
	</g>
	<g id="Layer">
	</g>
	<g id="Layer">
	</g>
	<g id="Layer">
	</g>
	<g id="Layer">
	</g>
</svg>