<svg xmlns="http://www.w3.org/2000/svg" viewBox="0 0 26 26" width="26" height="26">
	<style>
		tspan { white-space:pre }
		.shp0 { fill: #c9c9ca } 
	</style>
	<g id="Layer">
		<path id="Layer" class="shp0" d="M14.73,14.37c0.04,0.45 -0.13,0.9 -0.45,1.21c-0.29,0.29 -0.69,0.45 -1.09,0.45c-0.04,0 -0.08,0 -0.12,-0.01c-0.45,-0.04 -0.86,-0.27 -1.13,-0.63l-4.06,-5.61c-0.12,-0.17 -0.11,-0.41 0.04,-0.56c0.15,-0.15 0.39,-0.17 0.56,-0.04l5.61,4.06c0.37,0.27 0.6,0.68 0.64,1.13zM13.87,14.44c-0.01,-0.2 -0.12,-0.38 -0.27,-0.5l-3.42,-2.48l2.48,3.42c0.12,0.16 0.3,0.26 0.49,0.27c0.2,0.01 0.39,-0.06 0.53,-0.19c0.14,-0.14 0.21,-0.33 0.19,-0.53z" />
		<path id="Layer" class="shp0" d="M24.7,14.3c0,1.05 -0.14,2.06 -0.4,3.03c0,0 0,0 0,0.01v0.01c-0.27,0.99 -0.66,1.92 -1.16,2.79c-0.01,0.01 -0.01,0.02 -0.01,0.03c-0.01,0.01 -0.01,0.02 -0.03,0.04c-0.51,0.87 -1.11,1.66 -1.81,2.36c-0.01,0.01 -0.01,0.02 -0.01,0.03c-0.01,0.01 -0.01,0.01 -0.03,0.01c-0.71,0.71 -1.51,1.31 -2.38,1.82c-0.01,0.01 -0.01,0.01 -0.02,0.02c-0.01,0.01 -0.03,0.01 -0.04,0.01c-0.87,0.5 -1.79,0.89 -2.77,1.15c0,0 0,0 -0.01,0h-0.01c-0.97,0.26 -1.98,0.4 -3.02,0.4c-1.05,0 -2.06,-0.14 -3.02,-0.4c0,0 -0.01,0 -0.01,0c-0.98,-0.27 -1.91,-0.66 -2.77,-1.15c-0.01,-0.01 -0.03,-0.01 -0.04,-0.01c-0.01,-0.01 -0.01,-0.01 -0.02,-0.02c-0.87,-0.51 -1.67,-1.12 -2.38,-1.82c-0.01,-0.01 -0.02,-0.01 -0.03,-0.01c-0.01,-0.01 -0.01,-0.01 -0.01,-0.03c-0.7,-0.71 -1.31,-1.5 -1.81,-2.36c-0.01,-0.01 -0.02,-0.02 -0.03,-0.04c-0.01,-0.01 -0.01,-0.02 -0.01,-0.03c-0.5,-0.87 -0.89,-1.8 -1.16,-2.79c0,0 0,-0.01 0,-0.01c-0.26,-0.97 -0.4,-1.98 -0.4,-3.03c0,-1.05 0.14,-2.06 0.4,-3.03c0,0 0,0 0,-0.01c0,0 0,0 0,-0.01c0.27,-0.99 0.66,-1.92 1.16,-2.79c0.01,-0.01 0.01,-0.02 0.01,-0.03c0.01,-0.01 0.01,-0.01 0.02,-0.02c0.44,-0.75 0.95,-1.45 1.55,-2.09l-0.93,-0.93l-0.61,0.61l-1.84,-1.84l1.84,-1.84l1.84,1.84l-0.61,0.61l0.93,0.93c0.64,-0.59 1.34,-1.11 2.09,-1.55c0.01,-0.01 0.01,-0.01 0.02,-0.02c0.01,-0.01 0.02,-0.01 0.03,-0.01c0.87,-0.5 1.8,-0.89 2.79,-1.16c0,0 0,0 0.01,0c0,0 0,0 0.01,0c0.56,-0.15 1.13,-0.26 1.73,-0.33v-0.51h-0.65c-0.6,0 -1.08,-0.48 -1.08,-1.08c0,-0.6 0.48,-1.08 1.08,-1.08h3.9c0.6,0 1.08,0.48 1.08,1.08c0,0.6 -0.48,1.08 -1.08,1.08h-0.65v0.51c0.59,0.06 1.16,0.17 1.73,0.33c0,0 0,0 0.01,0c0,0 0,0 0.01,0c0.99,0.27 1.92,0.66 2.79,1.16c0.01,0.01 0.02,0.01 0.03,0.01c0.01,0.01 0.01,0.01 0.02,0.02c0.75,0.44 1.45,0.95 2.09,1.55l0.93,-0.93l-0.61,-0.61l1.84,-1.84l1.84,1.84l-1.84,1.84l-0.61,-0.61l-0.93,0.93c0.59,0.64 1.11,1.33 1.55,2.09c0.01,0.01 0.01,0.01 0.02,0.02c0.01,0.01 0.01,0.02 0.01,0.03c0.5,0.87 0.89,1.8 1.16,2.79c0,0 0,0 0,0.01c0,0 0,0 0,0.01c0.26,0.97 0.4,1.98 0.4,3.03zM22.5,4.19l0.61,0.61l0.61,-0.61l-0.61,-0.61zM2.89,4.8l0.61,-0.61l-0.61,-0.61l-0.61,0.61zM22.21,16.77c0.07,-0.23 0.3,-0.37 0.53,-0.3l0.83,0.22c0.14,-0.63 0.23,-1.29 0.25,-1.95h-0.86c-0.24,0 -0.43,-0.19 -0.43,-0.43c0,-0.24 0.19,-0.43 0.43,-0.43h0.86c-0.03,-0.66 -0.12,-1.32 -0.25,-1.95l-0.83,0.22c-0.04,0.01 -0.07,0.01 -0.12,0.01c-0.19,0 -0.37,-0.13 -0.42,-0.32c-0.06,-0.23 0.07,-0.47 0.3,-0.53l0.83,-0.22c-0.2,-0.64 -0.46,-1.24 -0.76,-1.81l-0.74,0.43c-0.07,0.04 -0.14,0.06 -0.22,0.06c-0.15,0 -0.3,-0.08 -0.38,-0.22c-0.12,-0.21 -0.05,-0.47 0.16,-0.59l0.74,-0.43c-0.35,-0.56 -0.75,-1.08 -1.2,-1.56l-0.6,0.6c-0.09,0.09 -0.2,0.13 -0.3,0.13c-0.11,0 -0.22,-0.04 -0.3,-0.13c-0.17,-0.17 -0.17,-0.44 0,-0.61l0.6,-0.6c-0.48,-0.45 -1,-0.85 -1.56,-1.2l-0.43,0.74c-0.08,0.14 -0.22,0.22 -0.38,0.22c-0.07,0 -0.15,-0.02 -0.22,-0.06c-0.21,-0.12 -0.28,-0.38 -0.16,-0.59l0.43,-0.74c-0.58,-0.3 -1.18,-0.56 -1.81,-0.76l-0.22,0.83c-0.05,0.19 -0.22,0.32 -0.42,0.32c-0.04,0 -0.07,-0.01 -0.12,-0.01c-0.23,-0.06 -0.37,-0.3 -0.3,-0.53l0.22,-0.83c-0.51,-0.12 -1.03,-0.19 -1.56,-0.23c-0.14,-0.01 -0.25,-0.01 -0.38,-0.02c-0.01,0 -0.01,0 -0.01,0v0.85c0,0.24 -0.2,0.43 -0.43,0.43c-0.24,0 -0.43,-0.2 -0.43,-0.43v-0.86c-0.01,0 -0.01,0 -0.01,0c-0.12,0.01 -0.24,0.01 -0.38,0.02c-0.53,0.04 -1.05,0.12 -1.56,0.23l0.22,0.83c0.07,0.23 -0.07,0.47 -0.3,0.53c-0.04,0.01 -0.07,0.01 -0.12,0.01c-0.2,0 -0.37,-0.13 -0.42,-0.32l-0.22,-0.83c-0.64,0.19 -1.23,0.46 -1.81,0.76l0.43,0.74c0.12,0.21 0.05,0.47 -0.16,0.59c-0.06,0.04 -0.14,0.06 -0.22,0.06c-0.15,0 -0.3,-0.08 -0.38,-0.22l-0.43,-0.74c-0.56,0.35 -1.08,0.75 -1.56,1.2l0.6,0.6c0.17,0.17 0.17,0.44 0,0.61c-0.09,0.09 -0.2,0.13 -0.3,0.13c-0.11,0 -0.22,-0.04 -0.3,-0.13l-0.6,-0.6c-0.45,0.48 -0.84,1 -1.2,1.56l0.74,0.43c0.21,0.12 0.28,0.38 0.16,0.59c-0.08,0.14 -0.22,0.22 -0.38,0.22c-0.07,0 -0.15,-0.02 -0.22,-0.06l-0.74,-0.43c-0.3,0.58 -0.56,1.18 -0.76,1.81l0.83,0.22c0.23,0.06 0.37,0.3 0.3,0.53c-0.05,0.2 -0.22,0.32 -0.42,0.32c-0.04,0 -0.07,-0.01 -0.12,-0.01l-0.83,-0.22c-0.14,0.63 -0.23,1.29 -0.25,1.95h0.86c0.24,0 0.43,0.2 0.43,0.43c0,0.24 -0.19,0.43 -0.43,0.43h-0.85c0.03,0.66 0.12,1.32 0.25,1.95l0.83,-0.22c0.23,-0.07 0.47,0.07 0.53,0.3c0.06,0.23 -0.07,0.47 -0.3,0.53l-0.83,0.22c0.19,0.64 0.46,1.24 0.76,1.81l0.74,-0.43c0.21,-0.12 0.47,-0.05 0.59,0.16c0.12,0.21 0.05,0.47 -0.16,0.59l-0.74,0.43c0.35,0.56 0.75,1.08 1.2,1.56l0.6,-0.6c0.17,-0.17 0.44,-0.17 0.61,0c0.17,0.17 0.17,0.44 0,0.61l-0.6,0.6c0.48,0.45 1,0.84 1.56,1.2l0.43,-0.74c0.12,-0.21 0.38,-0.28 0.59,-0.16c0.21,0.12 0.28,0.38 0.16,0.59l-0.43,0.74c0.58,0.3 1.18,0.56 1.81,0.76l0.22,-0.83c0.06,-0.23 0.3,-0.37 0.53,-0.3c0.23,0.07 0.37,0.3 0.3,0.53l-0.22,0.82c0.63,0.14 1.29,0.23 1.95,0.25v-0.85c0,-0.24 0.2,-0.43 0.43,-0.43c0.24,0 0.43,0.2 0.43,0.43v0.85c0.66,-0.03 1.32,-0.12 1.95,-0.25l-0.22,-0.82c-0.07,-0.23 0.07,-0.47 0.3,-0.53c0.23,-0.07 0.47,0.07 0.53,0.3l0.22,0.83c0.64,-0.2 1.23,-0.46 1.81,-0.76l-0.43,-0.74c-0.12,-0.21 -0.05,-0.47 0.16,-0.59c0.21,-0.12 0.47,-0.05 0.59,0.16l0.43,0.74c0.56,-0.35 1.08,-0.75 1.56,-1.2l-0.6,-0.6c-0.17,-0.17 -0.17,-0.44 0,-0.61c0.17,-0.17 0.44,-0.17 0.61,0l0.6,0.6c0.45,-0.48 0.84,-1 1.2,-1.56l-0.74,-0.43c-0.21,-0.12 -0.28,-0.38 -0.16,-0.59c0.12,-0.21 0.38,-0.28 0.59,-0.16l0.74,0.43c0.3,-0.58 0.56,-1.18 0.76,-1.81l-0.83,-0.22c-0.23,-0.07 -0.37,-0.3 -0.3,-0.53zM13,2.6c0.14,0 0.28,0 0.43,0.01v-1.31h1.52c0.12,0 0.22,-0.09 0.22,-0.22c0,-0.12 -0.1,-0.22 -0.22,-0.22h-3.9c-0.12,0 -0.22,0.1 -0.22,0.22c0,0.12 0.09,0.22 0.22,0.22h1.52v1.31c0.15,-0.01 0.3,-0.01 0.43,-0.01z" />
	</g>
	<g id="Layer">
	</g>
	<g id="Layer">
	</g>
	<g id="Layer">
	</g>
	<g id="Layer">
	</g>
	<g id="Layer">
	</g>
	<g id="Layer">
	</g>
	<g id="Layer">
	</g>
	<g id="Layer">
	</g>
	<g id="Layer">
	</g>
	<g id="Layer">
	</g>
	<g id="Layer">
	</g>
	<g id="Layer">
	</g>
	<g id="Layer">
	</g>
	<g id="Layer">
	</g>
	<g id="Layer">
	</g>
</svg>