<svg xmlns="http://www.w3.org/2000/svg" viewBox="0 0 46 46" width="46" height="46">
	<style>
		tspan { white-space:pre }
		.shp0 { fill: #00bbd3 } 
	</style>
	<g id="Layer">
		<path id="Layer" class="shp0" d="M4.22,9.53c0.38,-0.18 0.55,-0.63 0.38,-1.02c-0.18,-0.38 -0.63,-0.56 -1.02,-0.38c-0.53,0.24 -1.03,0.56 -1.47,0.94c-0.32,0.28 -0.35,0.76 -0.08,1.08c0.15,0.17 0.37,0.26 0.58,0.26c0.18,0 0.36,-0.06 0.5,-0.19c0.33,-0.29 0.7,-0.53 1.1,-0.71z" />
		<path id="Layer" class="shp0" d="M6.9,9.11h1.53c0.42,0 0.77,-0.34 0.77,-0.77c0,-0.42 -0.34,-0.77 -0.77,-0.77h-1.53c-0.42,0 -0.77,0.34 -0.77,0.77c0,0.42 0.34,0.77 0.77,0.77z" />
		<path id="Layer" class="shp0" d="M11.5,9.11h1.53c0.42,0 0.77,-0.34 0.77,-0.77c0,-0.42 -0.34,-0.77 -0.77,-0.77h-1.53c-0.42,0 -0.77,0.34 -0.77,0.77c0,0.42 0.34,0.77 0.77,0.77z" />
		<path id="Layer" class="shp0" d="M8.43,18.31h-1.53c-0.42,0 -0.77,0.34 -0.77,0.77c0,0.42 0.34,0.77 0.77,0.77h1.53c0.42,0 0.77,-0.34 0.77,-0.77c0,-0.42 -0.34,-0.77 -0.77,-0.77z" />
		<path id="Layer" class="shp0" d="M17.63,18.31h-1.53c-0.42,0 -0.77,0.34 -0.77,0.77c0,0.42 0.34,0.77 0.77,0.77h1.53c0.42,0 0.77,-0.34 0.77,-0.77c0,-0.42 -0.34,-0.77 -0.77,-0.77z" />
		<path id="Layer" class="shp0" d="M13.03,18.31h-1.53c-0.42,0 -0.77,0.34 -0.77,0.77c0,0.42 0.34,0.77 0.77,0.77h1.53c0.42,0 0.77,-0.34 0.77,-0.77c0,-0.42 -0.34,-0.77 -0.77,-0.77z" />
		<path id="Layer" class="shp0" d="M4.22,17.9c-0.4,-0.18 -0.77,-0.42 -1.1,-0.71c-0.32,-0.28 -0.8,-0.24 -1.08,0.08c-0.28,0.32 -0.24,0.8 0.08,1.08c0.44,0.38 0.94,0.7 1.47,0.94c0.1,0.05 0.21,0.07 0.32,0.07c0.29,0 0.57,-0.17 0.7,-0.45c0.18,-0.38 0.01,-0.84 -0.38,-1.02z" />
		<path id="Layer" class="shp0" d="M22.23,18.31h-1.53c-0.42,0 -0.77,0.34 -0.77,0.77c0,0.42 0.34,0.77 0.77,0.77h1.53c0.42,0 0.77,-0.34 0.77,-0.77c0,-0.42 -0.34,-0.77 -0.77,-0.77z" />
		<path id="Layer" class="shp0" d="M36.03,18.31h-1.53c-0.42,0 -0.77,0.34 -0.77,0.77c0,0.42 0.34,0.77 0.77,0.77h1.53c0.42,0 0.77,-0.34 0.77,-0.77c0,-0.42 -0.34,-0.77 -0.77,-0.77z" />
		<path id="Layer" class="shp0" d="M40.63,18.31h-1.53c-0.42,0 -0.77,0.34 -0.77,0.77c0,0.42 0.34,0.77 0.77,0.77h1.53c0.42,0 0.77,-0.34 0.77,-0.77c0,-0.42 -0.34,-0.77 -0.77,-0.77z" />
		<path id="Layer" class="shp0" d="M26.83,18.31h-1.53c-0.42,0 -0.77,0.34 -0.77,0.77c0,0.42 0.34,0.77 0.77,0.77h1.53c0.42,0 0.77,-0.34 0.77,-0.77c0,-0.42 -0.34,-0.77 -0.77,-0.77z" />
		<path id="Layer" class="shp0" d="M31.43,18.31h-1.53c-0.42,0 -0.77,0.34 -0.77,0.77c0,0.42 0.34,0.77 0.77,0.77h1.53c0.42,0 0.77,-0.34 0.77,-0.77c0,-0.42 -0.34,-0.77 -0.77,-0.77z" />
		<path id="Layer" class="shp0" d="M4.22,40.9c-0.4,-0.18 -0.77,-0.42 -1.1,-0.71c-0.32,-0.28 -0.8,-0.24 -1.08,0.08c-0.28,0.32 -0.24,0.8 0.08,1.08c0.44,0.38 0.94,0.7 1.47,0.94c0.1,0.05 0.21,0.07 0.32,0.07c0.29,0 0.57,-0.17 0.7,-0.45c0.18,-0.38 0.01,-0.84 -0.38,-1.02z" />
		<path id="Layer" class="shp0" d="M13.03,41.31h-1.53c-0.42,0 -0.77,0.34 -0.77,0.77c0,0.42 0.34,0.77 0.77,0.77h1.53c0.42,0 0.77,-0.34 0.77,-0.77c0,-0.42 -0.34,-0.77 -0.77,-0.77z" />
		<path id="Layer" class="shp0" d="M8.43,41.31h-1.53c-0.42,0 -0.77,0.34 -0.77,0.77c0,0.42 0.34,0.77 0.77,0.77h1.53c0.42,0 0.77,-0.34 0.77,-0.77c0,-0.42 -0.34,-0.77 -0.77,-0.77z" />
		<path id="Layer" class="shp0" d="M26.83,41.31h-1.53c-0.42,0 -0.77,0.34 -0.77,0.77c0,0.42 0.34,0.77 0.77,0.77h1.53c0.42,0 0.77,-0.34 0.77,-0.77c0,-0.42 -0.34,-0.77 -0.77,-0.77z" />
		<path id="Layer" class="shp0" d="M29.13,42.08c0,0.42 0.34,0.77 0.77,0.77h1.53c0.42,0 0.77,-0.34 0.77,-0.77c0,-0.42 -0.34,-0.77 -0.77,-0.77h-1.53c-0.42,0 -0.77,0.34 -0.77,0.77z" />
		<path id="Layer" class="shp0" d="M34.5,42.84h1.53c0.42,0 0.77,-0.34 0.77,-0.77c0,-0.42 -0.34,-0.77 -0.77,-0.77h-1.53c-0.42,0 -0.77,0.34 -0.77,0.77c0,0.42 0.34,0.77 0.77,0.77z" />
		<path id="Layer" class="shp0" d="M22.23,41.31h-1.53c-0.42,0 -0.77,0.34 -0.77,0.77c0,0.42 0.34,0.77 0.77,0.77h1.53c0.42,0 0.77,-0.34 0.77,-0.77c0,-0.42 -0.34,-0.77 -0.77,-0.77z" />
		<path id="Layer" class="shp0" d="M39.1,42.84h1.53c0.42,0 0.77,-0.34 0.77,-0.77c0,-0.42 -0.34,-0.77 -0.77,-0.77h-1.53c-0.42,0 -0.77,0.34 -0.77,0.77c0,0.42 0.34,0.77 0.77,0.77z" />
		<path id="Layer" class="shp0" d="M17.63,41.31h-1.53c-0.42,0 -0.77,0.34 -0.77,0.77c0,0.42 0.34,0.77 0.77,0.77h1.53c0.42,0 0.77,-0.34 0.77,-0.77c0,-0.42 -0.34,-0.77 -0.77,-0.77z" />
		<path id="Layer" class="shp0" d="M36.8,26.74c1.69,0 3.07,1.38 3.07,3.07c0,1.69 -1.38,3.07 -3.07,3.07c-1.69,0 -3.07,-1.38 -3.07,-3.07c0,-1.69 1.38,-3.07 3.07,-3.07zM35.27,29.81c0,0.85 0.69,1.53 1.53,1.53c0.85,0 1.53,-0.69 1.53,-1.53c0,-0.85 -0.69,-1.53 -1.53,-1.53c-0.85,0 -1.53,0.69 -1.53,1.53z" />
		<path id="Layer" class="shp0" d="M46,4.51v41.4h-40.52c-3.02,0 -5.48,-2.46 -5.48,-5.48v-29.78c0,-3.38 2.75,-6.13 6.13,-6.13h12.85l4.17,-4.17c0.34,-0.34 0.89,-0.34 1.23,0l1.57,1.57l1.57,-1.57c0.34,-0.34 0.89,-0.34 1.23,0l4.17,4.17zM27.04,3l-12.25,12.25h4.13l8.63,-8.63c0.33,-0.32 0.84,-0.32 1.16,-0.01l8.64,8.64h4.13l-13.35,-13.35zM28.14,8.2l-7.05,7.05h14.1zM10.42,15.24h2.2l12.25,-12.25l-1.1,-1.1zM1.53,10.64c0,2.54 2.06,4.6 4.6,4.6h2.12l7.13,-7.13c0.08,-0.23 0.25,-0.41 0.49,-0.49l1.58,-1.58h-11.32c-2.54,0 -4.6,2.06 -4.6,4.6zM44.47,25.98h-8.43c-2.11,0 -3.83,1.72 -3.83,3.83c0,2.11 1.72,3.83 3.83,3.83h8.43zM44.47,16.78h-38.33c-0.22,0 -0.44,-0.01 -0.65,-0.04c-0.07,-0.01 -0.14,-0.02 -0.21,-0.03c-0.14,-0.02 -0.28,-0.04 -0.42,-0.07c-0.08,-0.02 -0.16,-0.04 -0.24,-0.06c-0.12,-0.03 -0.25,-0.06 -0.37,-0.1c-0.08,-0.03 -0.17,-0.06 -0.25,-0.09c-0.11,-0.04 -0.22,-0.09 -0.33,-0.13c-0.08,-0.04 -0.16,-0.08 -0.24,-0.12c-0.1,-0.05 -0.21,-0.11 -0.31,-0.16c-0.08,-0.05 -0.16,-0.09 -0.23,-0.14c-0.1,-0.06 -0.19,-0.12 -0.29,-0.19c-0.07,-0.05 -0.15,-0.11 -0.22,-0.16c-0.09,-0.07 -0.18,-0.14 -0.26,-0.22c-0.07,-0.06 -0.14,-0.12 -0.2,-0.18c-0.07,-0.07 -0.14,-0.14 -0.21,-0.21c0.01,0.05 0.02,0.1 0.03,0.15c0.08,0.27 -0.01,0.54 -0.18,0.73v20.97c0,0.44 0.06,0.88 0.18,1.3c0.08,0.27 -0.01,0.54 -0.18,0.73v1.69c0,2.18 1.77,3.95 3.95,3.95h38.98v-1.53h-0.77c-0.42,0 -0.77,-0.34 -0.77,-0.77c0,-0.42 0.34,-0.77 0.77,-0.77h0.77v-6.13h-8.43c-2.96,0 -5.37,-2.41 -5.37,-5.37c0,-2.96 2.41,-5.37 5.37,-5.37h8.43v-4.6h-0.77c-0.42,0 -0.77,-0.34 -0.77,-0.77c0,-0.42 0.34,-0.77 0.77,-0.77h0.77zM44.47,15.24v-9.2h-10.01l1.54,1.54c0.01,0 0.02,-0.01 0.04,-0.01h1.53c0.42,0 0.77,0.34 0.77,0.77c0,0.42 -0.34,0.77 -0.77,0.77h-0.04l6.13,6.13z" />
		<path id="Layer" class="shp0" d="M42.17,7.58h-1.53c-0.42,0 -0.77,0.34 -0.77,0.77c0,0.42 0.34,0.77 0.77,0.77h1.53c0.42,0 0.77,-0.34 0.77,-0.77c0,-0.42 -0.34,-0.77 -0.77,-0.77z" />
	</g>
	<g id="Layer">
	</g>
	<g id="Layer">
	</g>
	<g id="Layer">
	</g>
	<g id="Layer">
	</g>
	<g id="Layer">
	</g>
	<g id="Layer">
	</g>
	<g id="Layer">
	</g>
	<g id="Layer">
	</g>
	<g id="Layer">
	</g>
	<g id="Layer">
	</g>
	<g id="Layer">
	</g>
	<g id="Layer">
	</g>
	<g id="Layer">
	</g>
	<g id="Layer">
	</g>
	<g id="Layer">
	</g>
</svg>