<svg xmlns="http://www.w3.org/2000/svg" viewBox="0 0 46 46" width="46" height="46"><style>.shp0{fill:#00bbd3}</style><g id="Layer"><g id="Layer"><g id="Layer"><path id="Layer" class="shp0" d="M23.72 29.47v-6.89c0-.46.31-.77.77-.77h12.24c.46 0 .77.31.77.77v6.89c0 .46-.31.77-.77.77H24.49c-.46 0-.77-.31-.77-.77zm1.53-.77h10.71v-5.36H25.25zM3.83 20.28h6.12c.46 0 .77-.31.77-.77s-.31-.77-.77-.77H3.83c-.46 0-.77.31-.77.77s.31.77.77.77zm9.18 0h6.12c.46 0 .77-.31.77-.77s-.31-.77-.77-.77h-6.12c-.46 0-.77.31-.77.77s.31.77.77.77zm-9.18 3.06h9.95c.46 0 .77-.31.77-.77s-.31-.77-.77-.77H3.83c-.46 0-.77.31-.77.77s.31.77.77.77zm15.3-1.53h-2.3c-.46 0-.77.31-.77.77s.31.77.77.77h2.3c.46 0 .77-.31.77-.77s-.31-.77-.77-.77z"/><path id="Layer" class="shp0" d="M45.91 14.55l-2.3 24.56c-.15 1.45-1.53 2.6-3.06 2.6h-.31L4.89 37.73a2.973 2.973 0 0 1-2.7-3.03C.93 34.32 0 33.15 0 31.77V7.28C0 5.6 1.38 4.22 3.06 4.22h35.2c1.68 0 3.06 1.38 3.06 3.06v3.68l1.84.22c.84.08 1.53.46 2.07 1.15.54.61.77 1.45.69 2.22zm-44.38-.39h38.26V9.57H1.53zm0-6.88v.77h38.26v-.77c0-.84-.69-1.53-1.53-1.53H3.06c-.84 0-1.53.69-1.53 1.53zm1.53 26.01h35.2c.84 0 1.53-.69 1.53-1.53V15.69H1.53v16.07c0 .84.69 1.53 1.53 1.53zm41.01-20.2c-.23-.31-.61-.54-.99-.54l-1.76-.15v19.36c0 1.68-1.38 3.06-3.06 3.06H3.75c.08.69.61 1.3 1.38 1.38l35.27 3.98c.84.08 1.61-.54 1.68-1.38l2.3-24.56c.08-.38-.08-.84-.31-1.15z"/></g></g></g></svg>