<svg xmlns="http://www.w3.org/2000/svg" viewBox="0 0 46 46" width="46" height="46"><style>.shp0{fill:#00bbd3}</style><g id="Layer"><path id="Layer" class="shp0" d="M10.42 4.28c-.64-.54-.93-1.37-.78-2.18.15-.79.71-1.42 1.48-1.67 2.3-.76 4.34-.51 5.9.74.28.22.66.22.94 0 1.56-1.25 3.6-1.5 5.9-.74.77.26 1.32.88 1.48 1.67.16.81-.14 1.64-.78 2.18-.73.61-1.66 2.54-1.96 3.41-.31.9-1.15 1.51-2.09 1.51h-5.7c-.94 0-1.78-.61-2.09-1.51-.22-.64-1.48-2.71-2.3-3.41zm.99-1.17c1.02.86 2.44 3.15 2.76 4.08.1.29.36.48.64.48h5.7c.29 0 .55-.19.64-.48.2-.57 1.24-3.09 2.41-4.08a.74.74 0 0 0 .26-.72.655.655 0 0 0-.45-.51c-1.81-.6-3.31-.44-4.46.48-.84.67-2.01.67-2.85 0-.7-.56-1.52-.84-2.47-.84-.61 0-1.28.12-1.99.35-.33.11-.43.37-.46.51-.05.27.05.53.26.72zm12.76 7.62a.77.77 0 0 0-.77-.77c-.14 0-.27.05-.38.12a.713.713 0 0 0-.38-.12h-9.2a.77.77 0 0 0 0 1.54h9.2v.77h-8.43a.77.77 0 0 0 0 1.54h9.14c.69.57 1.53.9 2.44.9 1.02 0 1.99-.4 2.71-1.12.3-.3.3-.78 0-1.08a.76.76 0 0 0-1.08 0c-.87.87-2.37.87-3.24.01zm-7.66 9.2c-4.92 0-10.73 6.23-10.73 11.5a.77.77 0 0 0 1.54 0c0-4.38 5.16-9.97 9.2-9.97a.77.77 0 0 0 0-1.54z"/><path id="Layer" class="shp0" d="M45.64 27.22v8.82c0 .13-.02.26-.06.38h.06v4.22c0 1.89-3.98 3.07-7.67 3.07-1.67 0-3.35-.24-4.72-.67-1.08 1.77-3.02 2.97-5.24 2.97-1.93 0-3.65-.9-4.78-2.3H8.31c-.21 0-.42-.01-.63-.02-2.65-.18-4.59-2.94-5.75-5.23-3.19-6.29-1.4-14.08 4.26-18.53l5.43-3.95c1.14-.89 2.59-1.4 4.06-1.4h5.96c1.67 0 3.11.83 4.02 1.53l5.52 3.75a15.15 15.15 0 0 1 4.11 4.83c.95-.11 1.89-.15 2.68-.15 2.85 0 7.67.57 7.67 2.68zm-7.67-1.15c-1.23 0-2.27.09-3.13.22-.16.02-.32.05-.47.08-.14.02-.26.05-.39.08-.1.02-.21.04-.31.07-.21.05-.39.1-.57.15-.08.02-.14.05-.21.07-.1.03-.19.06-.27.1-.07.03-.14.05-.2.08s-.11.05-.16.08c-.09.05-.17.09-.23.13-.04.03-.08.05-.11.08-.01.01-.02.02-.03.02l.05.05c.03.02.07.05.11.08.05.03.11.07.18.1.05.03.11.06.18.08.08.04.18.07.27.11.08.03.16.06.25.09.11.04.24.07.37.11.1.03.2.06.31.09.15.04.31.07.47.1.12.03.24.05.37.08.18.03.39.06.59.09.14.02.27.04.42.06.24.03.51.05.77.07l.4.03c.42.02.86.04 1.33.04.47 0 .92-.01 1.33-.04l.4-.03c.27-.02.53-.04.77-.07.15-.02.28-.04.42-.06.2-.03.41-.06.59-.09.13-.02.25-.05.37-.08.16-.03.33-.07.47-.1.11-.03.21-.06.31-.09.13-.04.26-.07.37-.11.09-.03.17-.06.25-.09.1-.04.19-.07.27-.11.07-.03.12-.06.18-.08.07-.03.13-.07.18-.1.04-.03.08-.05.11-.08.02-.02.04-.03.05-.05-.43-.4-2.46-1.14-6.08-1.14zm-6 7.27c-.04-.02-.09-.04-.13-.06v1.8c.01.01.02.02.03.02l.27.24c.05.05.11.1.16.15.1.1.2.2.29.31.03.04.07.07.1.11.11.13.21.26.3.39.02.02.03.04.05.07.1.15.2.3.29.46 0 .01.01.02.01.02 1.27.46 2.94.71 4.63.71.3 0 .57-.01.85-.02 3.13-.16 5.11-1.13 5.29-1.56v-2.7l-.12.06c-.13.06-.26.12-.4.18l-.21.09c-.13.05-.27.1-.41.15-.08.03-.15.05-.23.08-.16.05-.32.1-.49.14-.06.02-.12.04-.19.05-.23.06-.47.11-.71.16l-.16.03c-.19.04-.39.07-.58.1-.09.01-.18.02-.27.04l-.51.06-.28.03c-.18.02-.36.03-.54.04-.08 0-.17.01-.25.01-.26.01-.52.02-.78.02s-.52-.01-.78-.02c-.08 0-.16-.01-.24-.01-.18-.01-.36-.02-.55-.04l-.28-.03-.52-.06c-.09-.01-.17-.02-.26-.04-.2-.03-.4-.06-.59-.1l-.15-.03c-.24-.05-.48-.1-.71-.16-.06-.01-.12-.03-.18-.05-.17-.05-.34-.09-.5-.14-.08-.02-.15-.05-.22-.07-.14-.05-.28-.1-.41-.15l-.21-.09c-.14-.06-.26-.12-.39-.18zm-10.08 6.89c-.01-.12-.02-.24-.02-.36v-.08c0-.07.01-.13.01-.2.01-.18.02-.37.05-.55.01-.04.01-.09.01-.13.01-.03.02-.07.02-.1.05-.26.1-.52.18-.78.02-.06.04-.11.06-.17.07-.2.15-.39.23-.58.04-.09.08-.17.12-.25.11-.21.23-.42.37-.62.05-.08.11-.15.17-.22.1-.14.21-.27.33-.4.07-.08.13-.15.2-.22.16-.17.33-.32.51-.47.08-.06.16-.12.25-.18.14-.1.29-.2.44-.29.08-.05.15-.1.23-.14.21-.12.44-.22.66-.31.08-.03.16-.06.25-.09.23-.08.46-.15.7-.2.02 0 .04-.01.06-.02h.02c.26-.05.53-.09.8-.11.07 0 .13-.01.2-.01.08 0 .16-.01.25-.01.16 0 .32.01.48.02h.09c.28.03.55.07.82.14l.11.03c.27.07.54.15.8.26v-6.97c0-.14.03-.28.07-.41.02-.06.05-.11.08-.17.03-.06.06-.13.1-.19.05-.07.11-.14.17-.21.03-.03.06-.07.1-.1.08-.08.17-.15.27-.22.02-.01.04-.02.05-.04.64-.45 1.58-.75 2.55-.95a13.45 13.45 0 0 0-3.41-3.83l-5.52-3.75c-.76-.58-1.89-1.24-3.12-1.24h-5.96c-1.13 0-2.25.39-3.14 1.09L7.1 21.15C2.04 25.13.43 32.12 3.29 37.76c1.39 2.73 2.98 4.29 4.49 4.4.17.01.35.02.53.02h13.92c-.2-.61-.31-1.28-.34-1.94zm10.3 1.54c.07-.14.12-.29.17-.44 0-.01 0-.01.01-.02.05-.14.09-.29.12-.43 0-.02.01-.03.01-.05.03-.14.05-.27.07-.41 0-.02.01-.05.01-.07.02-.16.03-.32.03-.49 0-.16-.01-.32-.02-.47 0-.01 0-.02-.01-.04-.02-.14-.04-.29-.07-.43 0-.01-.01-.02-.01-.03-.03-.14-.07-.28-.11-.42 0-.01-.01-.02-.01-.03-.05-.14-.1-.27-.15-.41-.03-.08-.07-.16-.11-.23-.17-.34-.38-.65-.62-.93a.138.138 0 0 1-.03-.04c-.11-.12-.22-.23-.33-.34-.03-.03-.06-.05-.08-.08-.12-.1-.24-.2-.37-.29-.03-.02-.05-.04-.08-.06l-.03-.02c-.19-.13-.39-.24-.6-.33-.23-.11-.46-.19-.69-.26h-.01c-.23-.07-.46-.11-.7-.14-.01 0-.02 0-.04-.01-.22-.03-.45-.03-.67-.03-.04 0-.09 0-.13.01-.22.01-.44.04-.67.08-.02 0-.05.01-.07.02-.18.04-.35.09-.52.15l-.15.06c-.19.08-.38.16-.56.26 0 0-.01 0-.01.01-.79.45-1.44 1.14-1.86 1.95-.01.02-.02.03-.03.05-.09.18-.17.37-.23.56-.01.02-.02.04-.02.06-.06.19-.11.39-.14.59l-.03.21c-.01.07-.02.14-.02.21-.01.08-.01.17-.01.25v.18a4.61 4.61 0 0 0 4.6 4.55 4.59 4.59 0 0 0 4.18-2.7zm11.93-1.19v-2.44c-1.66.73-4.3.97-6.14.97-1.42 0-2.77-.11-3.93-.33.02.1.03.2.04.3l.03.21c.02.2.03.39.03.59 0 .27-.02.54-.06.8-.01.06-.02.12-.03.19-.04.26-.1.52-.17.77 1.19.35 2.64.54 4.09.54 3.62 0 5.94-1.11 6.14-1.59zm0-9.2v-2.44c-.02.01-.05.02-.07.03-.18.08-.37.15-.57.22-.01 0-.02.01-.03.01-.21.07-.44.13-.67.19-.07.02-.15.03-.22.05-.16.04-.33.07-.5.11-.08.02-.16.03-.25.05l-.56.09-.18.03-.74.09c-.06.01-.12.01-.18.02-.19.02-.38.03-.56.05-.08.01-.16.01-.24.01-.17.01-.34.02-.5.02-.07 0-.14.01-.21.01-.22.01-.44.01-.65.01-.21 0-.43 0-.65-.01-.07 0-.14-.01-.21-.01-.17-.01-.33-.01-.5-.02-.08 0-.16-.01-.24-.01-.19-.01-.37-.03-.56-.04-.06-.01-.12-.01-.18-.02-.25-.02-.49-.05-.74-.09l-.18-.03c-.19-.03-.38-.06-.56-.09-.08-.01-.16-.03-.25-.05-.17-.03-.34-.07-.5-.11-.08-.02-.15-.03-.22-.05-.22-.06-.44-.12-.65-.18-.01 0-.02-.01-.03-.01-.2-.07-.4-.14-.58-.22-.02-.01-.04-.02-.06-.02v2.5c.2.42 2.52 1.53 6.13 1.53 3.62 0 5.94-1.11 6.14-1.59z"/></g></svg>