<svg xmlns="http://www.w3.org/2000/svg" viewBox="0 0 26 26" width="26" height="26"><style>.shp0{fill:#c9c9ca}</style><g id="Layer"><path id="Layer" class="shp0" d="M14.73 14.37c.04.45-.13.9-.45 1.21-.29.29-.69.45-1.09.45-.04 0-.08 0-.12-.01-.45-.04-.86-.27-1.13-.63L7.88 9.78a.439.439 0 0 1 .04-.56c.15-.15.39-.17.56-.04l5.61 4.06c.37.27.6.68.64 1.13zm-.86.07a.698.698 0 0 0-.27-.5l-3.42-2.48 2.48 3.42c.12.16.3.26.49.27.2.01.39-.06.53-.19a.65.65 0 0 0 .19-.53z"/><path id="Layer" class="shp0" d="M24.7 14.3c0 1.05-.14 2.06-.4 3.03v.02c-.27.99-.66 1.92-1.16 2.79-.01.01-.01.02-.01.03-.01.01-.01.02-.03.04-.51.87-1.11 1.66-1.81 2.36-.01.01-.01.02-.01.03-.01.01-.01.01-.03.01-.71.71-1.51 1.31-2.38 1.82l-.02.02c-.01.01-.03.01-.04.01-.87.5-1.79.89-2.77 1.15h-.02c-.97.26-1.98.4-3.02.4-1.05 0-2.06-.14-3.02-.4h-.01c-.98-.27-1.91-.66-2.77-1.15-.01-.01-.03-.01-.04-.01l-.02-.02c-.87-.51-1.67-1.12-2.38-1.82-.01-.01-.02-.01-.03-.01-.01-.01-.01-.01-.01-.03-.7-.71-1.31-1.5-1.81-2.36a.138.138 0 0 1-.03-.04c-.01-.01-.01-.02-.01-.03-.5-.87-.89-1.8-1.16-2.79v-.01a11.657 11.657 0 0 1 0-6.06v-.02c.27-.99.66-1.92 1.16-2.79.01-.01.01-.02.01-.03l.02-.02c.44-.75.95-1.45 1.55-2.09l-.93-.93-.61.61-1.84-1.84 1.84-1.84 1.84 1.84-.61.61.93.93c.64-.59 1.34-1.11 2.09-1.55l.02-.02c.01-.01.02-.01.03-.01.87-.5 1.8-.89 2.79-1.16h.02c.56-.15 1.13-.26 1.73-.33v-.51h-.65c-.6 0-1.08-.48-1.08-1.08 0-.6.48-1.08 1.08-1.08H15c.6 0 1.08.48 1.08 1.08 0 .6-.48 1.08-1.08 1.08h-.65v.51c.59.06 1.16.17 1.73.33h.02c.99.27 1.92.66 2.79 1.16.01.01.02.01.03.01l.02.02c.75.44 1.45.95 2.09 1.55l.93-.93-.61-.61 1.84-1.84 1.84 1.84-1.84 1.84-.61-.61-.93.93c.59.64 1.11 1.33 1.55 2.09l.02.02c.01.01.01.02.01.03.5.87.89 1.8 1.16 2.79v.02c.26.97.4 1.98.4 3.03zM22.5 4.19l.61.61.61-.61-.61-.61zM2.89 4.8l.61-.61-.61-.61-.61.61zm19.32 11.97c.07-.23.3-.37.53-.3l.83.22c.14-.63.23-1.29.25-1.95h-.86c-.24 0-.43-.19-.43-.43s.19-.43.43-.43h.86c-.03-.66-.12-1.32-.25-1.95l-.83.22c-.04.01-.07.01-.12.01-.19 0-.37-.13-.42-.32a.43.43 0 0 1 .3-.53l.83-.22c-.2-.64-.46-1.24-.76-1.81l-.74.43a.44.44 0 0 1-.6-.16.428.428 0 0 1 .16-.59l.74-.43c-.35-.56-.75-1.08-1.2-1.56l-.6.6c-.09.09-.2.13-.3.13-.11 0-.22-.04-.3-.13a.429.429 0 0 1 0-.61l.6-.6c-.48-.45-1-.85-1.56-1.2l-.43.74c-.08.14-.22.22-.38.22-.07 0-.15-.02-.22-.06a.428.428 0 0 1-.16-.59l.43-.74c-.58-.3-1.18-.56-1.81-.76l-.22.83a.43.43 0 0 1-.42.32c-.04 0-.07-.01-.12-.01a.423.423 0 0 1-.3-.53l.22-.83c-.51-.12-1.03-.19-1.56-.23-.14-.01-.25-.01-.38-.02h-.01v.85c0 .24-.2.43-.43.43-.24 0-.43-.2-.43-.43v-.86h-.01c-.12.01-.24.01-.38.02-.53.04-1.05.12-1.56.23l.22.83c.07.23-.07.47-.3.53-.04.01-.07.01-.12.01a.43.43 0 0 1-.42-.32l-.22-.83c-.64.19-1.23.46-1.81.76l.43.74c.12.21.05.47-.16.59a.44.44 0 0 1-.6-.16l-.43-.74c-.56.35-1.08.75-1.56 1.2l.6.6c.17.17.17.44 0 .61-.09.09-.2.13-.3.13-.11 0-.22-.04-.3-.13l-.6-.6c-.45.48-.84 1-1.2 1.56l.74.43c.21.12.28.38.16.59-.08.14-.22.22-.38.22-.07 0-.15-.02-.22-.06l-.74-.43c-.3.58-.56 1.18-.76 1.81l.83.22c.23.06.37.3.3.53-.05.2-.22.32-.42.32-.04 0-.07-.01-.12-.01l-.83-.22c-.14.63-.23 1.29-.25 1.95H3c.24 0 .43.2.43.43 0 .24-.19.43-.43.43h-.85c.03.66.12 1.32.25 1.95l.83-.22c.23-.07.47.07.53.3a.43.43 0 0 1-.3.53l-.83.22c.19.64.46 1.24.76 1.81l.74-.43c.21-.12.47-.05.59.16.12.21.05.47-.16.59l-.74.43c.35.56.75 1.08 1.2 1.56l.6-.6c.17-.17.44-.17.61 0 .17.17.17.44 0 .61l-.6.6c.48.45 1 .84 1.56 1.2l.43-.74c.12-.21.38-.28.59-.16.21.12.28.38.16.59l-.43.74c.58.3 1.18.56 1.81.76l.22-.83c.06-.23.3-.37.53-.3.23.07.37.3.3.53l-.22.82c.63.14 1.29.23 1.95.25v-.85c0-.24.2-.43.43-.43.24 0 .43.2.43.43v.85c.66-.03 1.32-.12 1.95-.25l-.22-.82c-.07-.23.07-.47.3-.53.23-.07.47.07.53.3l.22.83c.64-.2 1.23-.46 1.81-.76l-.43-.74a.428.428 0 0 1 .16-.59c.21-.12.47-.05.59.16l.43.74c.56-.35 1.08-.75 1.56-1.2l-.6-.6a.429.429 0 0 1 0-.61c.17-.17.44-.17.61 0l.6.6c.45-.48.84-1 1.2-1.56l-.74-.43a.428.428 0 0 1-.16-.59c.12-.21.38-.28.59-.16l.74.43c.3-.58.56-1.18.76-1.81l-.83-.22c-.23-.07-.37-.3-.3-.53zM13 2.6c.14 0 .28 0 .43.01V1.3h1.52c.12 0 .22-.09.22-.22 0-.12-.1-.22-.22-.22h-3.9c-.12 0-.22.1-.22.22s.09.22.22.22h1.52v1.31c.15-.01.3-.01.43-.01z"/></g></svg>