<svg xmlns="http://www.w3.org/2000/svg" viewBox="0 0 46 46" width="46" height="46"><style>.shp0{fill:#00bbd3}</style><g id="Layer"><path id="Layer" class="shp0" d="M4.22 9.53c.38-.18.55-.63.38-1.02-.18-.38-.63-.56-1.02-.38-.53.24-1.03.56-1.47.94-.32.28-.35.76-.08 1.08.15.17.37.26.58.26.18 0 .36-.06.5-.19.33-.29.7-.53 1.1-.71zm2.68-.42h1.53a.77.77 0 0 0 0-1.54H6.9a.77.77 0 0 0 0 1.54zm4.6 0h1.53a.77.77 0 0 0 0-1.54H11.5a.77.77 0 0 0 0 1.54zm-3.07 9.2H6.9a.77.77 0 0 0 0 1.54h1.53a.77.77 0 0 0 0-1.54zm9.2 0H16.1a.77.77 0 0 0 0 1.54h1.53a.77.77 0 0 0 0-1.54zm-4.6 0H11.5a.77.77 0 0 0 0 1.54h1.53a.77.77 0 0 0 0-1.54zm-8.81-.41c-.4-.18-.77-.42-1.1-.71a.763.763 0 0 0-1.08.08c-.28.32-.24.8.08 1.08.44.38.94.7 1.47.94.1.05.21.07.32.07.29 0 .57-.17.7-.45.18-.38.01-.84-.38-1.02zm18.01.41H20.7a.77.77 0 0 0 0 1.54h1.53a.77.77 0 0 0 0-1.54zm13.8 0H34.5a.77.77 0 0 0 0 1.54h1.53a.77.77 0 0 0 0-1.54zm4.6 0H39.1a.77.77 0 0 0 0 1.54h1.53a.77.77 0 0 0 0-1.54zm-13.8 0H25.3a.77.77 0 0 0 0 1.54h1.53a.77.77 0 0 0 0-1.54zm4.6 0H29.9a.77.77 0 0 0 0 1.54h1.53a.77.77 0 0 0 0-1.54zM4.22 40.9c-.4-.18-.77-.42-1.1-.71a.763.763 0 0 0-1.08.08c-.28.32-.24.8.08 1.08.44.38.94.7 1.47.94.1.05.21.07.32.07.29 0 .57-.17.7-.45.18-.38.01-.84-.38-1.02zm8.81.41H11.5a.77.77 0 0 0 0 1.54h1.53a.77.77 0 0 0 0-1.54zm-4.6 0H6.9a.77.77 0 0 0 0 1.54h1.53a.77.77 0 0 0 0-1.54zm18.4 0H25.3a.77.77 0 0 0 0 1.54h1.53a.77.77 0 0 0 0-1.54zm2.3.77c0 .42.34.77.77.77h1.53a.77.77 0 0 0 0-1.54H29.9a.77.77 0 0 0-.77.77zm5.37.76h1.53a.77.77 0 0 0 0-1.54H34.5a.77.77 0 0 0 0 1.54zm-12.27-1.53H20.7a.77.77 0 0 0 0 1.54h1.53a.77.77 0 0 0 0-1.54zm16.87 1.53h1.53a.77.77 0 0 0 0-1.54H39.1a.77.77 0 0 0 0 1.54zm-21.47-1.53H16.1a.77.77 0 0 0 0 1.54h1.53a.77.77 0 0 0 0-1.54zM36.8 26.74c1.69 0 3.07 1.38 3.07 3.07s-1.38 3.07-3.07 3.07-3.07-1.38-3.07-3.07 1.38-3.07 3.07-3.07zm-1.53 3.07a1.53 1.53 0 1 0 3.06 0 1.53 1.53 0 0 0-3.06 0z"/><path id="Layer" class="shp0" d="M46 4.51v41.4H5.48C2.46 45.91 0 43.45 0 40.43V10.65c0-3.38 2.75-6.13 6.13-6.13h12.85L23.15.35a.87.87 0 0 1 1.23 0l1.57 1.57L27.52.35a.87.87 0 0 1 1.23 0l4.17 4.17zM27.04 3L14.79 15.25h4.13l8.63-8.63a.83.83 0 0 1 1.16-.01l8.64 8.64h4.13L28.13 1.9zm1.1 5.2l-7.05 7.05h14.1zm-17.72 7.04h2.2L24.87 2.99l-1.1-1.1zm-8.89-4.6a4.6 4.6 0 0 0 4.6 4.6h2.12l7.13-7.13c.08-.23.25-.41.49-.49l1.58-1.58H6.13a4.6 4.6 0 0 0-4.6 4.6zm42.94 15.34h-8.43c-2.11 0-3.83 1.72-3.83 3.83 0 2.11 1.72 3.83 3.83 3.83h8.43zm0-9.2H6.14c-.22 0-.44-.01-.65-.04l-.21-.03c-.14-.02-.28-.04-.42-.07l-.24-.06c-.12-.03-.25-.06-.37-.1-.08-.03-.17-.06-.25-.09-.11-.04-.22-.09-.33-.13l-.24-.12c-.1-.05-.21-.11-.31-.16-.08-.05-.16-.09-.23-.14-.1-.06-.19-.12-.29-.19l-.22-.16c-.09-.07-.18-.14-.26-.22-.07-.06-.14-.12-.2-.18l-.21-.21.03.15c.08.27-.01.54-.18.73v20.97c0 .44.06.88.18 1.3.08.27-.01.54-.18.73v1.69c0 2.18 1.77 3.95 3.95 3.95h38.98v-1.53h-.77a.77.77 0 0 1 0-1.54h.77V35.2h-8.43c-2.96 0-5.37-2.41-5.37-5.37s2.41-5.37 5.37-5.37h8.43v-4.6h-.77a.77.77 0 0 1 0-1.54h.77zm0-1.54v-9.2H34.46L36 7.58c.01 0 .02-.01.04-.01h1.53a.77.77 0 0 1 0 1.54h-.04l6.13 6.13z"/><path id="Layer" class="shp0" d="M42.17 7.58h-1.53a.77.77 0 0 0 0 1.54h1.53a.77.77 0 0 0 0-1.54z"/></g></svg>